<svg xmlns="http://www.w3.org/2000/svg" xmlns:xlink="http://www.w3.org/1999/xlink" width="500" zoomAndPan="magnify" viewBox="0 0 375 374.999991" height="500" preserveAspectRatio="xMidYMid meet" version="1.0"><defs><clipPath id="06d3b0c47a"><path d="M 187.5 0 C 83.945312 0 0 83.945312 0 187.5 C 0 291.054688 83.945312 375 187.5 375 C 291.054688 375 375 291.054688 375 187.5 C 375 83.945312 291.054688 0 187.5 0 Z M 187.5 0 " clip-rule="nonzero"/></clipPath><clipPath id="8014eb0bd8"><path d="M 28.023438 43.097656 L 346.773438 43.097656 L 346.773438 331.847656 L 28.023438 331.847656 Z M 28.023438 43.097656 " clip-rule="nonzero"/></clipPath></defs><g clip-path="url(#06d3b0c47a)"><rect x="-37.5" width="450" fill="#4f46e5" y="-37.499999" height="449.999989" fill-opacity="1"/></g><g clip-path="url(#8014eb0bd8)"><path fill="#ffffff" d="M 263.4375 73.585938 L 195.089844 73.585938 L 195.089844 50.804688 C 195.089844 50.308594 195.042969 49.8125 194.945312 49.324219 C 194.847656 48.835938 194.703125 48.359375 194.511719 47.898438 C 194.320312 47.4375 194.085938 47 193.808594 46.585938 C 193.535156 46.171875 193.21875 45.789062 192.867188 45.4375 C 192.511719 45.082031 192.128906 44.769531 191.714844 44.492188 C 191.300781 44.214844 190.863281 43.980469 190.402344 43.789062 C 189.941406 43.597656 189.464844 43.453125 188.976562 43.355469 C 188.488281 43.261719 187.996094 43.210938 187.496094 43.210938 C 186.996094 43.210938 186.503906 43.261719 186.015625 43.355469 C 185.527344 43.453125 185.050781 43.597656 184.589844 43.789062 C 184.128906 43.980469 183.691406 44.214844 183.277344 44.492188 C 182.863281 44.769531 182.480469 45.082031 182.125 45.4375 C 181.773438 45.789062 181.460938 46.171875 181.183594 46.585938 C 180.90625 47 180.671875 47.4375 180.480469 47.898438 C 180.289062 48.359375 180.144531 48.835938 180.046875 49.324219 C 179.949219 49.8125 179.902344 50.308594 179.902344 50.804688 L 179.902344 73.585938 L 111.554688 73.585938 C 110.3125 73.589844 109.074219 73.652344 107.835938 73.773438 C 106.597656 73.894531 105.371094 74.078125 104.152344 74.324219 C 102.929688 74.566406 101.726562 74.867188 100.539062 75.230469 C 99.347656 75.59375 98.179688 76.011719 97.03125 76.488281 C 95.882812 76.964844 94.761719 77.496094 93.664062 78.082031 C 92.566406 78.667969 91.503906 79.304688 90.46875 79.996094 C 89.4375 80.6875 88.4375 81.429688 87.476562 82.21875 C 86.515625 83.007812 85.597656 83.839844 84.71875 84.71875 C 83.839844 85.597656 83.003906 86.519531 82.214844 87.480469 C 81.425781 88.441406 80.6875 89.4375 79.996094 90.472656 C 79.304688 91.503906 78.667969 92.570312 78.078125 93.664062 C 77.492188 94.761719 76.960938 95.882812 76.484375 97.03125 C 76.007812 98.179688 75.589844 99.351562 75.230469 100.539062 C 74.867188 101.730469 74.566406 102.933594 74.320312 104.152344 C 74.078125 105.371094 73.894531 106.601562 73.773438 107.835938 C 73.648438 109.074219 73.585938 110.3125 73.585938 111.558594 L 73.585938 248.25 C 73.585938 249.492188 73.648438 250.734375 73.773438 251.972656 C 73.894531 253.207031 74.078125 254.4375 74.320312 255.65625 C 74.566406 256.875 74.867188 258.078125 75.230469 259.269531 C 75.589844 260.457031 76.007812 261.625 76.484375 262.773438 C 76.960938 263.921875 77.492188 265.046875 78.078125 266.140625 C 78.667969 267.238281 79.304688 268.304688 79.996094 269.335938 C 80.6875 270.371094 81.425781 271.367188 82.214844 272.328125 C 83.003906 273.289062 83.839844 274.210938 84.71875 275.089844 C 85.597656 275.96875 86.515625 276.800781 87.476562 277.589844 C 88.4375 278.378906 89.4375 279.121094 90.46875 279.808594 C 91.503906 280.5 92.566406 281.140625 93.664062 281.726562 C 94.761719 282.3125 95.882812 282.84375 97.03125 283.320312 C 98.179688 283.796875 99.347656 284.214844 100.539062 284.578125 C 101.726562 284.9375 102.929688 285.242188 104.152344 285.484375 C 105.371094 285.726562 106.597656 285.910156 107.835938 286.035156 C 109.074219 286.15625 110.3125 286.21875 111.554688 286.21875 L 153.054688 286.21875 L 181.179688 328.402344 C 181.351562 328.660156 181.539062 328.910156 181.742188 329.144531 C 181.945312 329.382812 182.160156 329.605469 182.390625 329.8125 C 182.621094 330.023438 182.867188 330.214844 183.121094 330.394531 C 183.375 330.574219 183.640625 330.738281 183.914062 330.886719 C 184.1875 331.03125 184.46875 331.160156 184.761719 331.273438 C 185.050781 331.386719 185.347656 331.480469 185.648438 331.554688 C 185.953125 331.632812 186.257812 331.6875 186.566406 331.726562 C 186.875 331.765625 187.183594 331.785156 187.496094 331.785156 C 187.808594 331.785156 188.117188 331.765625 188.425781 331.726562 C 188.734375 331.6875 189.042969 331.632812 189.34375 331.554688 C 189.644531 331.480469 189.941406 331.386719 190.230469 331.273438 C 190.523438 331.160156 190.804688 331.03125 191.078125 330.886719 C 191.355469 330.738281 191.617188 330.574219 191.871094 330.394531 C 192.128906 330.214844 192.371094 330.023438 192.601562 329.8125 C 192.832031 329.605469 193.046875 329.382812 193.25 329.144531 C 193.453125 328.910156 193.640625 328.660156 193.8125 328.402344 L 221.9375 286.21875 L 263.4375 286.21875 C 264.679688 286.21875 265.921875 286.15625 267.15625 286.035156 C 268.394531 285.910156 269.621094 285.726562 270.839844 285.484375 C 272.0625 285.242188 273.265625 284.9375 274.453125 284.578125 C 275.644531 284.214844 276.8125 283.796875 277.960938 283.320312 C 279.109375 282.84375 280.230469 282.3125 281.328125 281.726562 C 282.425781 281.140625 283.488281 280.5 284.523438 279.808594 C 285.558594 279.121094 286.554688 278.378906 287.515625 277.589844 C 288.476562 276.800781 289.394531 275.96875 290.273438 275.089844 C 291.152344 274.210938 291.988281 273.289062 292.777344 272.328125 C 293.566406 271.367188 294.304688 270.371094 294.996094 269.335938 C 295.6875 268.304688 296.328125 267.238281 296.914062 266.140625 C 297.5 265.046875 298.03125 263.921875 298.507812 262.773438 C 298.984375 261.625 299.402344 260.457031 299.765625 259.269531 C 300.125 258.078125 300.429688 256.875 300.671875 255.65625 C 300.914062 254.4375 301.097656 253.207031 301.21875 251.972656 C 301.34375 250.734375 301.40625 249.492188 301.40625 248.25 L 301.40625 111.558594 C 301.40625 110.3125 301.34375 109.074219 301.21875 107.835938 C 301.097656 106.601562 300.914062 105.371094 300.671875 104.152344 C 300.429688 102.933594 300.125 101.730469 299.765625 100.539062 C 299.402344 99.351562 298.984375 98.179688 298.507812 97.03125 C 298.03125 95.882812 297.5 94.761719 296.914062 93.664062 C 296.328125 92.570312 295.6875 91.503906 294.996094 90.472656 C 294.304688 89.4375 293.566406 88.441406 292.777344 87.480469 C 291.988281 86.519531 291.152344 85.597656 290.273438 84.71875 C 289.394531 83.839844 288.476562 83.007812 287.515625 82.21875 C 286.554688 81.429688 285.558594 80.6875 284.523438 79.996094 C 283.488281 79.304688 282.425781 78.667969 281.328125 78.082031 C 280.230469 77.496094 279.109375 76.964844 277.960938 76.488281 C 276.8125 76.011719 275.644531 75.59375 274.453125 75.230469 C 273.265625 74.867188 272.0625 74.566406 270.839844 74.324219 C 269.621094 74.078125 268.394531 73.894531 267.15625 73.773438 C 265.921875 73.652344 264.679688 73.589844 263.4375 73.585938 Z M 286.21875 248.25 C 286.21875 248.996094 286.179688 249.738281 286.105469 250.484375 C 286.03125 251.226562 285.921875 251.960938 285.777344 252.691406 C 285.628906 253.425781 285.449219 254.148438 285.230469 254.859375 C 285.015625 255.574219 284.761719 256.277344 284.476562 256.964844 C 284.191406 257.652344 283.875 258.328125 283.519531 258.984375 C 283.167969 259.640625 282.785156 260.28125 282.371094 260.902344 C 281.957031 261.519531 281.511719 262.121094 281.039062 262.695312 C 280.566406 263.273438 280.066406 263.824219 279.539062 264.351562 C 279.011719 264.878906 278.460938 265.378906 277.882812 265.851562 C 277.304688 266.328125 276.707031 266.769531 276.085938 267.183594 C 275.46875 267.601562 274.828125 267.984375 274.171875 268.335938 C 273.511719 268.6875 272.839844 269.003906 272.152344 269.292969 C 271.460938 269.578125 270.761719 269.828125 270.046875 270.046875 C 269.332031 270.261719 268.609375 270.445312 267.878906 270.589844 C 267.148438 270.738281 266.410156 270.847656 265.667969 270.921875 C 264.925781 270.996094 264.183594 271.03125 263.4375 271.03125 L 217.871094 271.03125 C 216.601562 271.035156 215.410156 271.335938 214.289062 271.933594 C 213.171875 272.53125 212.257812 273.359375 211.554688 274.414062 L 187.496094 310.5 L 163.4375 274.414062 C 162.734375 273.359375 161.820312 272.53125 160.703125 271.933594 C 159.582031 271.335938 158.390625 271.035156 157.121094 271.03125 L 111.554688 271.03125 C 110.808594 271.03125 110.066406 270.992188 109.324219 270.921875 C 108.582031 270.847656 107.84375 270.738281 107.113281 270.589844 C 106.382812 270.445312 105.660156 270.261719 104.945312 270.046875 C 104.230469 269.828125 103.53125 269.578125 102.839844 269.292969 C 102.152344 269.003906 101.480469 268.6875 100.820312 268.335938 C 100.164062 267.984375 99.523438 267.601562 98.90625 267.183594 C 98.285156 266.769531 97.6875 266.328125 97.109375 265.851562 C 96.535156 265.378906 95.980469 264.878906 95.453125 264.351562 C 94.925781 263.824219 94.425781 263.273438 93.953125 262.695312 C 93.480469 262.121094 93.035156 261.519531 92.621094 260.902344 C 92.207031 260.28125 91.824219 259.640625 91.472656 258.984375 C 91.121094 258.328125 90.800781 257.652344 90.515625 256.964844 C 90.230469 256.277344 89.976562 255.574219 89.761719 254.859375 C 89.542969 254.148438 89.363281 253.425781 89.214844 252.691406 C 89.070312 251.960938 88.960938 251.226562 88.886719 250.484375 C 88.8125 249.738281 88.773438 248.996094 88.773438 248.25 L 88.773438 225.46875 L 286.21875 225.46875 Z M 286.21875 210.28125 L 88.773438 210.28125 L 88.773438 111.558594 C 88.773438 110.8125 88.8125 110.066406 88.886719 109.324219 C 88.960938 108.582031 89.070312 107.847656 89.214844 107.113281 C 89.363281 106.382812 89.542969 105.660156 89.761719 104.945312 C 89.976562 104.234375 90.230469 103.53125 90.515625 102.84375 C 90.800781 102.152344 91.121094 101.480469 91.472656 100.824219 C 91.824219 100.164062 92.207031 99.527344 92.621094 98.90625 C 93.035156 98.285156 93.480469 97.6875 93.953125 97.113281 C 94.425781 96.535156 94.925781 95.984375 95.453125 95.457031 C 95.980469 94.929688 96.535156 94.429688 97.109375 93.953125 C 97.6875 93.480469 98.285156 93.039062 98.90625 92.621094 C 99.523438 92.207031 100.164062 91.824219 100.820312 91.472656 C 101.480469 91.121094 102.152344 90.800781 102.839844 90.515625 C 103.53125 90.230469 104.230469 89.980469 104.945312 89.761719 C 105.660156 89.546875 106.382812 89.363281 107.113281 89.21875 C 107.84375 89.070312 108.582031 88.960938 109.324219 88.886719 C 110.066406 88.8125 110.808594 88.777344 111.554688 88.777344 L 263.4375 88.777344 C 264.183594 88.777344 264.925781 88.8125 265.667969 88.886719 C 266.410156 88.960938 267.148438 89.070312 267.878906 89.21875 C 268.609375 89.363281 269.332031 89.546875 270.046875 89.761719 C 270.761719 89.980469 271.460938 90.230469 272.152344 90.515625 C 272.839844 90.800781 273.511719 91.121094 274.171875 91.472656 C 274.828125 91.824219 275.46875 92.207031 276.085938 92.621094 C 276.707031 93.039062 277.304688 93.480469 277.882812 93.953125 C 278.460938 94.429688 279.011719 94.929688 279.539062 95.457031 C 280.066406 95.984375 280.566406 96.535156 281.039062 97.113281 C 281.511719 97.6875 281.957031 98.285156 282.371094 98.90625 C 282.785156 99.527344 283.167969 100.164062 283.519531 100.824219 C 283.875 101.480469 284.191406 102.152344 284.476562 102.84375 C 284.761719 103.53125 285.015625 104.234375 285.230469 104.945312 C 285.449219 105.660156 285.628906 106.382812 285.777344 107.113281 C 285.921875 107.847656 286.03125 108.582031 286.105469 109.324219 C 286.179688 110.066406 286.21875 110.8125 286.21875 111.558594 Z M 157.121094 157.121094 C 157.121094 158.117188 157.023438 159.105469 156.828125 160.085938 C 156.632812 161.0625 156.34375 162.011719 155.964844 162.933594 C 155.582031 163.855469 155.113281 164.730469 154.558594 165.558594 C 154.007812 166.390625 153.375 167.15625 152.671875 167.863281 C 151.964844 168.566406 151.199219 169.195312 150.371094 169.75 C 149.539062 170.304688 148.664062 170.773438 147.746094 171.152344 C 146.824219 171.535156 145.875 171.824219 144.894531 172.019531 C 143.917969 172.210938 142.929688 172.308594 141.933594 172.308594 C 140.933594 172.308594 139.945312 172.210938 138.96875 172.019531 C 137.992188 171.824219 137.042969 171.535156 136.121094 171.152344 C 135.199219 170.773438 134.324219 170.304688 133.492188 169.75 C 132.664062 169.195312 131.898438 168.566406 131.191406 167.863281 C 130.488281 167.15625 129.859375 166.390625 129.304688 165.558594 C 128.75 164.730469 128.28125 163.855469 127.898438 162.933594 C 127.519531 162.011719 127.230469 161.0625 127.035156 160.085938 C 126.839844 159.105469 126.742188 158.117188 126.742188 157.121094 C 126.742188 156.125 126.839844 155.136719 127.035156 154.160156 C 127.230469 153.179688 127.519531 152.230469 127.898438 151.308594 C 128.28125 150.386719 128.75 149.511719 129.304688 148.683594 C 129.859375 147.855469 130.488281 147.085938 131.191406 146.382812 C 131.898438 145.675781 132.664062 145.046875 133.492188 144.492188 C 134.324219 143.9375 135.199219 143.472656 136.121094 143.089844 C 137.042969 142.707031 137.992188 142.421875 138.96875 142.226562 C 139.945312 142.03125 140.933594 141.933594 141.933594 141.933594 C 142.929688 141.933594 143.917969 142.03125 144.894531 142.226562 C 145.875 142.421875 146.824219 142.707031 147.746094 143.089844 C 148.664062 143.472656 149.539062 143.9375 150.371094 144.492188 C 151.199219 145.046875 151.964844 145.675781 152.671875 146.382812 C 153.375 147.085938 154.007812 147.855469 154.558594 148.683594 C 155.113281 149.511719 155.582031 150.386719 155.964844 151.308594 C 156.34375 152.230469 156.632812 153.179688 156.828125 154.160156 C 157.023438 155.136719 157.121094 156.125 157.121094 157.121094 Z M 248.25 157.121094 C 248.25 158.117188 248.152344 159.105469 247.957031 160.085938 C 247.761719 161.0625 247.472656 162.011719 247.09375 162.933594 C 246.710938 163.855469 246.242188 164.730469 245.6875 165.558594 C 245.132812 166.390625 244.503906 167.15625 243.800781 167.863281 C 243.09375 168.566406 242.328125 169.195312 241.5 169.75 C 240.667969 170.304688 239.792969 170.773438 238.871094 171.152344 C 237.953125 171.535156 237 171.824219 236.023438 172.019531 C 235.046875 172.210938 234.058594 172.308594 233.058594 172.308594 C 232.0625 172.308594 231.074219 172.210938 230.097656 172.019531 C 229.121094 171.824219 228.167969 171.535156 227.25 171.152344 C 226.328125 170.773438 225.453125 170.304688 224.621094 169.75 C 223.792969 169.195312 223.027344 168.566406 222.320312 167.863281 C 221.617188 167.15625 220.984375 166.390625 220.433594 165.558594 C 219.878906 164.730469 219.410156 163.855469 219.027344 162.933594 C 218.648438 162.011719 218.359375 161.0625 218.164062 160.085938 C 217.96875 159.105469 217.871094 158.117188 217.871094 157.121094 C 217.871094 156.125 217.96875 155.136719 218.164062 154.160156 C 218.359375 153.179688 218.648438 152.230469 219.027344 151.308594 C 219.410156 150.386719 219.878906 149.511719 220.433594 148.683594 C 220.984375 147.855469 221.617188 147.085938 222.320312 146.382812 C 223.027344 145.675781 223.792969 145.046875 224.621094 144.492188 C 225.453125 143.9375 226.328125 143.472656 227.25 143.089844 C 228.167969 142.707031 229.121094 142.421875 230.097656 142.226562 C 231.074219 142.03125 232.0625 141.933594 233.058594 141.933594 C 234.058594 141.933594 235.046875 142.03125 236.023438 142.226562 C 237 142.421875 237.953125 142.707031 238.871094 143.089844 C 239.792969 143.472656 240.667969 143.9375 241.5 144.492188 C 242.328125 145.046875 243.09375 145.675781 243.800781 146.382812 C 244.503906 147.085938 245.132812 147.855469 245.6875 148.683594 C 246.242188 149.511719 246.710938 150.386719 247.09375 151.308594 C 247.472656 152.230469 247.761719 153.179688 247.957031 154.160156 C 248.152344 155.136719 248.25 156.125 248.25 157.121094 Z M 43.210938 126.746094 L 43.210938 187.496094 C 43.210938 187.996094 43.160156 188.492188 43.0625 188.980469 C 42.964844 189.46875 42.824219 189.945312 42.632812 190.402344 C 42.441406 190.863281 42.207031 191.300781 41.929688 191.71875 C 41.652344 192.132812 41.339844 192.515625 40.984375 192.867188 C 40.632812 193.21875 40.25 193.535156 39.835938 193.8125 C 39.421875 194.089844 38.980469 194.324219 38.523438 194.515625 C 38.0625 194.703125 37.585938 194.847656 37.097656 194.945312 C 36.609375 195.042969 36.113281 195.09375 35.617188 195.09375 C 35.117188 195.09375 34.625 195.042969 34.132812 194.945312 C 33.644531 194.847656 33.171875 194.703125 32.710938 194.515625 C 32.25 194.324219 31.8125 194.089844 31.398438 193.8125 C 30.980469 193.535156 30.597656 193.21875 30.246094 192.867188 C 29.894531 192.515625 29.578125 192.132812 29.300781 191.71875 C 29.023438 191.300781 28.789062 190.863281 28.601562 190.402344 C 28.410156 189.945312 28.265625 189.46875 28.167969 188.980469 C 28.070312 188.492188 28.023438 187.996094 28.023438 187.496094 L 28.023438 126.746094 C 28.023438 126.246094 28.070312 125.753906 28.167969 125.265625 C 28.265625 124.773438 28.410156 124.300781 28.601562 123.839844 C 28.789062 123.378906 29.023438 122.941406 29.300781 122.527344 C 29.578125 122.113281 29.894531 121.730469 30.246094 121.375 C 30.597656 121.023438 30.980469 120.707031 31.398438 120.429688 C 31.8125 120.15625 32.25 119.921875 32.710938 119.730469 C 33.171875 119.539062 33.644531 119.394531 34.132812 119.296875 C 34.625 119.199219 35.117188 119.152344 35.617188 119.152344 C 36.113281 119.152344 36.609375 119.199219 37.097656 119.296875 C 37.585938 119.394531 38.0625 119.539062 38.523438 119.730469 C 38.980469 119.921875 39.421875 120.15625 39.835938 120.429688 C 40.25 120.707031 40.632812 121.023438 40.984375 121.375 C 41.339844 121.730469 41.652344 122.113281 41.929688 122.527344 C 42.207031 122.941406 42.441406 123.378906 42.632812 123.839844 C 42.824219 124.300781 42.964844 124.773438 43.0625 125.265625 C 43.160156 125.753906 43.210938 126.246094 43.210938 126.746094 Z M 346.972656 126.746094 L 346.972656 187.496094 C 346.972656 187.996094 346.921875 188.492188 346.824219 188.980469 C 346.726562 189.46875 346.582031 189.945312 346.394531 190.402344 C 346.203125 190.863281 345.96875 191.300781 345.691406 191.71875 C 345.414062 192.132812 345.097656 192.515625 344.746094 192.867188 C 344.394531 193.21875 344.011719 193.535156 343.597656 193.8125 C 343.179688 194.089844 342.742188 194.324219 342.28125 194.515625 C 341.820312 194.703125 341.347656 194.847656 340.859375 194.945312 C 340.371094 195.042969 339.875 195.09375 339.375 195.09375 C 338.878906 195.09375 338.382812 195.042969 337.894531 194.945312 C 337.40625 194.847656 336.929688 194.703125 336.46875 194.515625 C 336.011719 194.324219 335.574219 194.089844 335.15625 193.8125 C 334.742188 193.535156 334.359375 193.21875 334.007812 192.867188 C 333.65625 192.515625 333.339844 192.132812 333.0625 191.71875 C 332.785156 191.300781 332.550781 190.863281 332.359375 190.402344 C 332.171875 189.945312 332.027344 189.46875 331.929688 188.980469 C 331.832031 188.492188 331.78125 187.996094 331.78125 187.496094 L 331.78125 126.746094 C 331.78125 126.246094 331.832031 125.753906 331.929688 125.265625 C 332.027344 124.773438 332.171875 124.300781 332.359375 123.839844 C 332.550781 123.378906 332.785156 122.941406 333.0625 122.527344 C 333.339844 122.113281 333.65625 121.730469 334.007812 121.375 C 334.359375 121.023438 334.742188 120.707031 335.15625 120.429688 C 335.574219 120.15625 336.011719 119.921875 336.46875 119.730469 C 336.929688 119.539062 337.40625 119.394531 337.894531 119.296875 C 338.382812 119.199219 338.878906 119.152344 339.375 119.152344 C 339.875 119.152344 340.371094 119.199219 340.859375 119.296875 C 341.347656 119.394531 341.820312 119.539062 342.28125 119.730469 C 342.742188 119.921875 343.179688 120.15625 343.597656 120.429688 C 344.011719 120.707031 344.394531 121.023438 344.746094 121.375 C 345.097656 121.730469 345.414062 122.113281 345.691406 122.527344 C 345.96875 122.941406 346.203125 123.378906 346.394531 123.839844 C 346.582031 124.300781 346.726562 124.773438 346.824219 125.265625 C 346.921875 125.753906 346.972656 126.246094 346.972656 126.746094 Z M 346.972656 126.746094 " fill-opacity="1" fill-rule="nonzero"/></g></svg>